# xmcd CD database file
#
# Track frame offsets:
#	150
#	11686
#	29284
#	44819
#	57663
#	76028
#	95977
#	107340
#	119633
#	131634
#	147554
#	171769
#	185026
#	202457
#
# Disc length: 2936 seconds
#
# Revision: 7
# Processed by: cddbd v1.5.2PL0 Copyright (c) Steve Scherf et al.
# Submitted via: Feurio! 1.68 - http://www.feurio.com
#
DISCID=db0b760e
DTITLE=Diana Ross - Megastars - Die groessten Hits
DYEAR=2001
DGENRE=Pop
TTITLE0=This Old Heart Of Mine (Is Weak For You)
TTITLE1=The Boss
TTITLE2=Touch Me In The Morning
TTITLE3=Stop! In The Name Of Love
TTITLE4=Upside Down
TTITLE5=Diana Ross with Lionel Richie - Endless Love
TTITLE6=Where Did Our Love Go
TTITLE7=You Can't Hurry Love
TTITLE8=You Keep Me Hangin' On
TTITLE9=Ain't No Mountain High Enough
TTITLE10=I'm Coming Out
TTITLE11=Reach Out And Touch (Somebody's Hand)
TTITLE12=My Old Piano
TTITLE13=It's My Turn
EXTD=YEAR: 2001
EXTT0=
EXTT1=
EXTT2=
EXTT3=
EXTT4=
EXTT5=
EXTT6=
EXTT7=
EXTT8=
EXTT9=
EXTT10=
EXTT11=
EXTT12=
EXTT13=
PLAYORDER=
